<svg xmlns="http://www.w3.org/2000/svg" version="1.1" xmlns:xlink="http://www.w3.org/1999/xlink" xmlns:svgjs="http://svgjs.com/svgjs" width="401" height="401"><svg width="401" height="401" viewBox="0 0 401 401" fill="none" xmlns="http://www.w3.org/2000/svg">
<mask id="SvgjsMask1001" style="mask-type:alpha" maskUnits="userSpaceOnUse" x="0" y="0" width="400" height="400">
<path d="M400 200C400 310.457 310.457 400 200 400C89.5431 400 0 310.457 0 200C0 89.5431 89.5431 0 200 0C310.457 0 400 89.5431 400 200Z" fill="black"></path>
</mask>
<g mask="url(#mask0)">
<path d="M401 201C401 311.457 311.457 401 201 401C90.5431 401 1 311.457 1 201C1 90.5431 90.5431 1 201 1C311.457 1 401 90.5431 401 201Z" fill="#FFBEEF"></path>
<path d="M685.038 -199.019L-276.25 385.981L-302.231 340.981L685.038 -199.019Z" fill="black"></path>
<g clip-path="url(#clip0)">
<path d="M81.8693 346.72C74.3362 346.72 70.5697 343.056 70.5697 335.73V332.066L74.8901 322.741C91.5072 287.661 103.582 257.354 111.115 231.821L113.774 223.828H103.139C94.7199 223.828 88.7377 224.161 85.1927 224.827C81.6477 225.494 77.3273 227.603 72.2314 231.155C69.7942 232.709 67.3571 234.708 64.9199 237.15C62.4827 239.592 60.3779 241.924 58.6054 244.144C56.8329 246.364 55.8359 247.696 55.6143 248.14C55.1712 248.362 53.5095 248.473 50.6292 248.473C46.4195 248.473 44.3147 247.363 44.3147 245.143C44.3147 243.811 46.4195 239.925 50.6292 233.487C54.8389 227.048 60.9318 220.165 68.908 212.838C76.8842 205.511 84.7496 201.293 92.5042 200.183C94.0552 199.739 118.981 199.516 167.281 199.516C202.731 199.516 220.899 199.628 221.785 199.85C226.216 201.404 228.432 204.512 228.432 209.175C228.432 216.057 224.887 220.72 217.797 223.162C216.468 223.606 208.824 223.828 194.865 223.828H173.596L172.599 229.49C169.94 245.476 168.61 258.686 168.61 269.122C168.61 280.667 169.608 290.991 171.602 300.094C173.596 309.197 175.7 316.302 177.916 321.409C180.132 326.516 181.239 329.624 181.239 330.734C181.239 334.508 179.689 338.061 176.587 341.391C173.485 344.722 169.497 346.387 164.622 346.387C162.185 346.387 160.191 346.054 158.64 345.388C157.089 344.722 155.317 342.057 153.323 337.395C151.329 332.732 149.556 326.071 148.005 317.412C147.784 315.414 147.673 310.53 147.673 302.759C147.673 291.879 148.67 280.223 150.664 267.79C152.658 255.356 154.652 245.143 156.646 237.15C158.64 229.157 159.748 224.716 159.97 223.828H127.4L127.068 225.161C127.068 225.827 124.963 234.597 120.753 251.471C116.544 268.345 111.78 286.218 106.463 305.09C101.145 323.962 97.7109 334.73 96.16 337.395C93.7228 343.612 88.9593 346.72 81.8693 346.72Z" fill="black"></path>
<path d="M258.45 208.101C253.125 208.101 250.462 205.511 250.462 200.331V197.741L253.516 191.148C265.264 166.347 273.801 144.92 279.127 126.868L281.007 121.217H273.488C267.536 121.217 263.306 121.452 260.8 121.923C258.294 122.394 255.239 123.886 251.636 126.397C249.913 127.496 248.19 128.909 246.467 130.635C244.744 132.362 243.256 134.01 242.003 135.58C240.75 137.15 240.045 138.092 239.888 138.406C239.575 138.562 238.4 138.641 236.364 138.641C233.387 138.641 231.899 137.856 231.899 136.286C231.899 135.345 233.387 132.598 236.364 128.045C239.34 123.493 243.648 118.627 249.287 113.447C254.926 108.267 260.487 105.284 265.969 104.499C267.066 104.185 284.688 104.029 318.837 104.029C343.9 104.029 356.744 104.107 357.371 104.264C360.504 105.363 362.07 107.56 362.07 110.857C362.07 115.723 359.564 119.019 354.551 120.746C353.611 121.06 348.207 121.217 338.339 121.217H323.301L322.596 125.22C320.716 136.522 319.776 145.862 319.776 153.239C319.776 161.402 320.481 168.701 321.891 175.137C323.301 181.573 324.789 186.596 326.355 190.206C327.922 193.817 328.705 196.014 328.705 196.799C328.705 199.468 327.609 201.979 325.416 204.334C323.223 206.689 320.403 207.866 316.957 207.866C315.234 207.866 313.824 207.63 312.727 207.159C311.631 206.689 310.378 204.805 308.968 201.508C307.558 198.212 306.305 193.503 305.209 187.381C305.052 185.968 304.974 182.515 304.974 177.021C304.974 169.329 305.678 161.088 307.088 152.298C308.498 143.507 309.908 136.286 311.318 130.635C312.727 124.984 313.511 121.845 313.667 121.217H290.641L290.406 122.159C290.406 122.63 288.918 128.83 285.941 140.76C282.965 152.69 279.597 165.326 275.838 178.669C272.078 192.012 269.65 199.625 268.554 201.508C266.831 205.904 263.463 208.101 258.45 208.101Z" fill="black"></path>
</g>
</g>
<defs>
<clipPath id="SvgjsClipPath1000">
<rect width="340" height="242.717" fill="white" transform="translate(38 104)"></rect>
</clipPath>
</defs>
</svg><style>@media (prefers-color-scheme: light) { :root { filter: none; } }
</style></svg>
