<svg width="400" height="400" viewBox="0 0 400 400" fill="none" xmlns="http://www.w3.org/2000/svg">
<mask id="mask0" style="mask-type:alpha" maskUnits="userSpaceOnUse" x="0" y="0" width="400" height="400">
<path d="M400 200C400 310.457 310.457 400 200 400C89.5431 400 0 310.457 0 200C0 89.5431 89.5431 0 200 0C310.457 0 400 89.5431 400 200Z" fill="black"/>
</mask>
<g mask="url(#mask0)">
<path d="M400 200C400 310.457 310.457 400 200 400C89.5431 400 0 310.457 0 200C0 89.5431 89.5431 0 200 0C310.457 0 400 89.5431 400 200Z" fill="#FFBEEF"/>
<path d="M684.038 -200.019L-277.25 384.981L-303.231 339.981L684.038 -200.019Z" fill="black"/>
<g clip-path="url(#clip0)">
<path d="M80.8693 345.72C73.3362 345.72 69.5697 342.056 69.5697 334.73V331.066L73.8901 321.741C90.5072 286.661 102.582 256.354 110.115 230.821L112.774 222.828H102.139C93.7199 222.828 87.7377 223.161 84.1927 223.827C80.6477 224.494 76.3273 226.603 71.2314 230.155C68.7942 231.709 66.3571 233.708 63.9199 236.15C61.4827 238.592 59.3779 240.924 57.6054 243.144C55.8329 245.364 54.8359 246.696 54.6143 247.14C54.1712 247.362 52.5095 247.473 49.6292 247.473C45.4195 247.473 43.3147 246.363 43.3147 244.143C43.3147 242.811 45.4195 238.925 49.6292 232.487C53.8389 226.048 59.9318 219.165 67.908 211.838C75.8842 204.511 83.7496 200.293 91.5042 199.183C93.0552 198.739 117.981 198.516 166.281 198.516C201.731 198.516 219.899 198.628 220.785 198.85C225.216 200.404 227.432 203.512 227.432 208.175C227.432 215.057 223.887 219.72 216.797 222.162C215.468 222.606 207.824 222.828 193.865 222.828H172.596L171.599 228.49C168.94 244.476 167.61 257.686 167.61 268.122C167.61 279.667 168.608 289.991 170.602 299.094C172.596 308.197 174.7 315.302 176.916 320.409C179.132 325.516 180.239 328.624 180.239 329.734C180.239 333.508 178.689 337.061 175.587 340.391C172.485 343.722 168.497 345.387 163.622 345.387C161.185 345.387 159.191 345.054 157.64 344.388C156.089 343.722 154.317 341.057 152.323 336.395C150.329 331.732 148.556 325.071 147.005 316.412C146.784 314.414 146.673 309.53 146.673 301.759C146.673 290.879 147.67 279.223 149.664 266.79C151.658 254.356 153.652 244.143 155.646 236.15C157.64 228.157 158.748 223.716 158.97 222.828H126.4L126.068 224.161C126.068 224.827 123.963 233.597 119.753 250.471C115.544 267.345 110.78 285.218 105.463 304.09C100.145 322.962 96.7109 333.73 95.16 336.395C92.7228 342.612 87.9593 345.72 80.8693 345.72Z" fill="black"/>
<path d="M257.45 207.101C252.125 207.101 249.462 204.511 249.462 199.331V196.741L252.516 190.148C264.264 165.347 272.801 143.92 278.127 125.868L280.007 120.217H272.488C266.536 120.217 262.306 120.452 259.8 120.923C257.294 121.394 254.239 122.886 250.636 125.397C248.913 126.496 247.19 127.909 245.467 129.635C243.744 131.362 242.256 133.01 241.003 134.58C239.75 136.15 239.045 137.092 238.888 137.406C238.575 137.562 237.4 137.641 235.364 137.641C232.387 137.641 230.899 136.856 230.899 135.286C230.899 134.345 232.387 131.598 235.364 127.045C238.34 122.493 242.648 117.627 248.287 112.447C253.926 107.267 259.487 104.284 264.969 103.499C266.066 103.185 283.688 103.029 317.837 103.029C342.9 103.029 355.744 103.107 356.371 103.264C359.504 104.363 361.07 106.56 361.07 109.857C361.07 114.723 358.564 118.019 353.551 119.746C352.611 120.06 347.207 120.217 337.339 120.217H322.301L321.596 124.22C319.716 135.522 318.776 144.862 318.776 152.239C318.776 160.402 319.481 167.701 320.891 174.137C322.301 180.573 323.789 185.596 325.355 189.206C326.922 192.817 327.705 195.014 327.705 195.799C327.705 198.468 326.609 200.979 324.416 203.334C322.223 205.689 319.403 206.866 315.957 206.866C314.234 206.866 312.824 206.63 311.727 206.159C310.631 205.689 309.378 203.805 307.968 200.508C306.558 197.212 305.305 192.503 304.209 186.381C304.052 184.968 303.974 181.515 303.974 176.021C303.974 168.329 304.678 160.088 306.088 151.298C307.498 142.507 308.908 135.286 310.318 129.635C311.727 123.984 312.511 120.845 312.667 120.217H289.641L289.406 121.159C289.406 121.63 287.918 127.83 284.941 139.76C281.965 151.69 278.597 164.326 274.838 177.669C271.078 191.012 268.65 198.625 267.554 200.508C265.831 204.904 262.463 207.101 257.45 207.101Z" fill="black"/>
</g>
</g>
<defs>
<clipPath id="clip0">
<rect width="340" height="242.717" fill="white" transform="translate(37 103)"/>
</clipPath>
</defs>
</svg>
